<svg width="24" height="24" viewBox="0 0 24 24" fill="none" xmlns="http://www.w3.org/2000/svg">
<g id="fluent:chat-20-filled">
<path id="Vector" d="M12.1258 2.64453C13.5529 2.64536 14.9612 2.96938 16.2452 3.59229C17.5291 4.2152 18.6553 5.12082 19.5393 6.24119C20.4232 7.36155 21.0419 8.66756 21.349 10.0612C21.656 11.4549 21.6435 12.9 21.3122 14.2881C20.981 15.6762 20.3396 16.9712 19.4363 18.076C18.533 19.1809 17.3912 20.0668 16.0967 20.6672C14.8021 21.2677 13.3883 21.5672 11.9614 21.5432C10.5345 21.5192 9.1316 21.1723 7.85793 20.5287L7.71499 20.4519L3.40934 21.5268C3.32647 21.5476 3.24008 21.5503 3.15611 21.5345C3.07214 21.5187 2.99259 21.4848 2.92297 21.4353C2.85334 21.3858 2.79529 21.3217 2.75282 21.2476C2.71035 21.1735 2.68447 21.091 2.67696 21.0059V20.909L2.6935 20.811L3.76844 16.5065L3.69402 16.3647C3.15346 15.3006 2.82071 14.1432 2.71358 12.9545L2.68405 12.5032L2.67578 12.0945C2.67578 9.58824 3.6714 7.18459 5.44362 5.41237C7.21584 3.64015 9.61949 2.64453 12.1258 2.64453ZM12.7164 13.2758H9.17266L9.06634 13.2852C8.93017 13.3099 8.80697 13.3816 8.71826 13.4878C8.62955 13.594 8.58095 13.728 8.58095 13.8664C8.58095 14.0048 8.62955 14.1388 8.71826 14.245C8.80697 14.3512 8.93017 14.4229 9.06634 14.4476L9.17266 14.457H12.7164L12.8227 14.4476C12.9589 14.4229 13.0821 14.3512 13.1708 14.245C13.2595 14.1388 13.3081 14.0048 13.3081 13.8664C13.3081 13.728 13.2595 13.594 13.1708 13.4878C13.0821 13.3816 12.9589 13.3099 12.8227 13.2852L12.7164 13.2758ZM15.0789 9.73203H9.17266L9.06634 9.74148C8.93017 9.76614 8.80697 9.83783 8.71826 9.94405C8.62955 10.0503 8.58095 10.1843 8.58095 10.3227C8.58095 10.461 8.62955 10.595 8.71826 10.7013C8.80697 10.8075 8.93017 10.8792 9.06634 10.9038L9.17266 10.9133H15.0789L15.1852 10.9038C15.3214 10.8792 15.4446 10.8075 15.5333 10.7013C15.622 10.595 15.6706 10.461 15.6706 10.3227C15.6706 10.1843 15.622 10.0503 15.5333 9.94405C15.4446 9.83783 15.3214 9.76614 15.1852 9.74148L15.0789 9.73203Z" fill="#7AA7C1"/>
</g>
</svg>
