<svg width="18" height="18" viewBox="0 0 18 18" fill="none" xmlns="http://www.w3.org/2000/svg">
<g id="Component 92">
<path id="Vector" fill-rule="evenodd" clip-rule="evenodd" d="M12.3135 7.86409L8.76073 11.4175C8.64104 11.5364 8.47919 11.6031 8.3105 11.6031C8.14181 11.6031 7.97996 11.5364 7.86027 11.4175L5.68645 9.24373C5.62737 9.18464 5.5805 9.1145 5.54853 9.03731C5.51655 8.96011 5.5001 8.87737 5.5001 8.79382C5.5001 8.62507 5.56713 8.46323 5.68645 8.34391C5.80578 8.22459 5.96761 8.15755 6.13636 8.15755C6.30511 8.15755 6.46695 8.22459 6.58627 8.34391L8.31018 10.0678L11.4137 6.96427C11.4728 6.90519 11.543 6.85832 11.6201 6.82635C11.6973 6.79437 11.7801 6.77791 11.8636 6.77791C11.9472 6.77791 12.0299 6.79437 12.1071 6.82635C12.1843 6.85832 12.2545 6.90519 12.3135 6.96427C12.3726 7.02336 12.4195 7.0935 12.4515 7.17069C12.4834 7.24789 12.4999 7.33063 12.4999 7.41418C12.4999 7.49774 12.4834 7.58048 12.4515 7.65767C12.4195 7.73487 12.3726 7.80501 12.3135 7.86409ZM9 2C5.13409 2 2 5.13409 2 9C2 12.8659 5.13409 16 9 16C12.8659 16 16 12.8659 16 9C16 5.13409 12.8659 2 9 2Z" fill="#C2C2C2"/>
</g>
</svg>
