<svg width="24" height="24" viewBox="0 0 24 24" fill="none" xmlns="http://www.w3.org/2000/svg">
<g clip-path="url(#clip0_1433_42016)">
<path d="M3.25 22C3.25 22 2 22 2 20.75C2 19.5 3.25 15.75 9.5 15.75C15.75 15.75 17 19.5 17 20.75C17 22 15.75 22 15.75 22H3.25ZM9.5 14.5C10.4946 14.5 11.4484 14.1049 12.1517 13.4017C12.8549 12.6984 13.25 11.7446 13.25 10.75C13.25 9.75544 12.8549 8.80161 12.1517 8.09835C11.4484 7.39509 10.4946 7 9.5 7C8.50544 7 7.55161 7.39509 6.84835 8.09835C6.14509 8.80161 5.75 9.75544 5.75 10.75C5.75 11.7446 6.14509 12.6984 6.84835 13.4017C7.55161 14.1049 8.50544 14.5 9.5 14.5Z" fill="#F5F5F5"/>
<path d="M18.2513 2C17.6007 1.99978 16.9612 2.16883 16.3957 2.49053C15.8302 2.81223 15.3582 3.27552 15.0259 3.83487C14.6936 4.39423 14.5126 5.0304 14.5006 5.68089C14.4886 6.33137 14.6461 6.97378 14.9575 7.545L14.5138 9.10125C14.4981 9.1559 14.4977 9.21377 14.5126 9.26863C14.5274 9.3235 14.5569 9.37328 14.5979 9.41262C14.6389 9.45197 14.6899 9.47938 14.7453 9.49191C14.8008 9.50444 14.8586 9.50162 14.9125 9.48375L16.3738 8.99687C16.8718 9.28467 17.4294 9.45404 18.0033 9.49188C18.5773 9.52971 19.1523 9.43501 19.6838 9.21508C20.2153 8.99515 20.6891 8.6559 21.0685 8.22358C21.4479 7.79125 21.7228 7.27743 21.8719 6.72187C22.0209 6.16631 22.0402 5.58391 21.9282 5.01971C21.8162 4.45551 21.5759 3.92464 21.2259 3.46818C20.8759 3.01171 20.4255 2.64188 19.9097 2.38729C19.3939 2.13271 18.8265 2.00019 18.2513 2ZM17.0013 5.125C17.0013 5.04212 17.0342 4.96263 17.0928 4.90403C17.1514 4.84542 17.2309 4.8125 17.3138 4.8125H19.1888C19.2716 4.8125 19.3511 4.84542 19.4097 4.90403C19.4683 4.96263 19.5013 5.04212 19.5013 5.125C19.5013 5.20788 19.4683 5.28737 19.4097 5.34597C19.3511 5.40458 19.2716 5.4375 19.1888 5.4375H17.3138C17.2309 5.4375 17.1514 5.40458 17.0928 5.34597C17.0342 5.28737 17.0013 5.20788 17.0013 5.125ZM17.3138 6.0625H18.5638C18.6466 6.0625 18.7261 6.09542 18.7847 6.15403C18.8433 6.21263 18.8763 6.29212 18.8763 6.375C18.8763 6.45788 18.8433 6.53737 18.7847 6.59597C18.7261 6.65458 18.6466 6.6875 18.5638 6.6875H17.3138C17.2309 6.6875 17.1514 6.65458 17.0928 6.59597C17.0342 6.53737 17.0013 6.45788 17.0013 6.375C17.0013 6.29212 17.0342 6.21263 17.0928 6.15403C17.1514 6.09542 17.2309 6.0625 17.3138 6.0625Z" fill="#F5F5F5"/>
</g>
<defs>
<clipPath id="clip0_1433_42016">
<rect width="20" height="20" fill="white" transform="translate(2 2)"/>
</clipPath>
</defs>
</svg>
