<svg width="44" height="44" viewBox="0 0 44 44" fill="none" xmlns="http://www.w3.org/2000/svg">
<g filter="url(#filter0_d_1690_65539)">
<g filter="url(#filter1_d_1690_65539)">
<mask id="path-1-outside-1_1690_65539" maskUnits="userSpaceOnUse" x="2" y="2" width="36" height="36" fill="black">
<rect fill="white" x="2" y="2" width="36" height="36"/>
<path fill-rule="evenodd" clip-rule="evenodd" d="M20 36C28.8366 36 36 28.8366 36 20C36 11.1634 28.8366 4 20 4C11.1634 4 4 11.1634 4 20C4 28.8366 11.1634 36 20 36ZM15 24.9999C15 26.7286 15.6383 27.9516 16.5394 28.7526C17.4588 29.5699 18.7131 30 20 30C21.2869 30 22.5412 29.5699 23.4606 28.7526C24.3617 27.9516 25 26.7286 25 25C25 24.4477 25.4477 24 26 24C26.5523 24 27 24.4477 27 25C27 27.2713 26.1383 29.0483 24.7894 30.2474C23.4588 31.4301 21.7131 32 20 32C18.2869 32 16.5412 31.4301 15.2106 30.2474C13.8617 29.0483 13 27.2713 13 24.9999C13 24.4476 13.4477 23.9999 14 23.9999C14.5523 23.9999 15 24.4476 15 24.9999ZM11.7151 21.6076C11.7059 21.6114 11.6965 21.6148 11.687 21.618C11.6363 21.6352 11.5845 21.6437 11.5334 21.6443C11.4696 21.6451 11.4045 21.6336 11.3415 21.6084C9.56609 20.8974 7.96255 19.3236 6.99211 17.6844C6.50477 16.8612 6.16057 15.9943 6.04303 15.18C5.92577 14.3677 6.02897 13.5578 6.50661 12.9208C6.97239 12.2997 7.59073 12.0207 8.24014 12.0011C8.86667 11.9822 9.4909 12.2038 10.0256 12.5152C10.564 12.8288 11.0495 13.2552 11.405 13.7007C11.4468 13.7531 11.4878 13.8069 11.5273 13.8618C11.5669 13.8069 11.6078 13.7531 11.6497 13.7007C12.0052 13.2552 12.4907 12.8288 13.0291 12.5152C13.5638 12.2038 14.188 11.9822 14.8145 12.0011C15.464 12.0207 16.0823 12.2997 16.5481 12.9208C17.0257 13.5578 17.1289 14.3677 17.0117 15.18C16.8941 15.9943 16.5499 16.8612 16.0626 17.6844C15.0925 19.323 13.4898 20.8963 11.7151 21.6076ZM27.7417 21.618C27.7512 21.6148 27.7605 21.6114 27.7698 21.6076C29.5444 20.8963 31.1472 19.323 32.1173 17.6844C32.6046 16.8612 32.9488 15.9943 33.0663 15.18C33.1836 14.3677 33.0804 13.5578 32.6028 12.9208C32.137 12.2997 31.5186 12.0207 30.8692 12.0011C30.2427 11.9822 29.6185 12.2038 29.0837 12.5152C28.5453 12.8288 28.0599 13.2552 27.7043 13.7007C27.6625 13.7531 27.6216 13.8069 27.582 13.8618C27.5424 13.8069 27.5015 13.7531 27.4597 13.7007C27.1042 13.2552 26.6187 12.8288 26.0803 12.5152C25.5456 12.2038 24.9214 11.9822 24.2948 12.0011C23.6454 12.0207 23.0271 12.2997 22.5613 12.9208C22.0837 13.5578 21.9805 14.3677 22.0977 15.18C22.2153 15.9943 22.5595 16.8612 23.0468 17.6844C24.0172 19.3236 25.6208 20.8974 27.3962 21.6084C27.4592 21.6336 27.5243 21.6451 27.5881 21.6443C27.6392 21.6437 27.691 21.6352 27.7417 21.618Z"/>
</mask>
<path fill-rule="evenodd" clip-rule="evenodd" d="M20 36C28.8366 36 36 28.8366 36 20C36 11.1634 28.8366 4 20 4C11.1634 4 4 11.1634 4 20C4 28.8366 11.1634 36 20 36ZM15 24.9999C15 26.7286 15.6383 27.9516 16.5394 28.7526C17.4588 29.5699 18.7131 30 20 30C21.2869 30 22.5412 29.5699 23.4606 28.7526C24.3617 27.9516 25 26.7286 25 25C25 24.4477 25.4477 24 26 24C26.5523 24 27 24.4477 27 25C27 27.2713 26.1383 29.0483 24.7894 30.2474C23.4588 31.4301 21.7131 32 20 32C18.2869 32 16.5412 31.4301 15.2106 30.2474C13.8617 29.0483 13 27.2713 13 24.9999C13 24.4476 13.4477 23.9999 14 23.9999C14.5523 23.9999 15 24.4476 15 24.9999ZM11.7151 21.6076C11.7059 21.6114 11.6965 21.6148 11.687 21.618C11.6363 21.6352 11.5845 21.6437 11.5334 21.6443C11.4696 21.6451 11.4045 21.6336 11.3415 21.6084C9.56609 20.8974 7.96255 19.3236 6.99211 17.6844C6.50477 16.8612 6.16057 15.9943 6.04303 15.18C5.92577 14.3677 6.02897 13.5578 6.50661 12.9208C6.97239 12.2997 7.59073 12.0207 8.24014 12.0011C8.86667 11.9822 9.4909 12.2038 10.0256 12.5152C10.564 12.8288 11.0495 13.2552 11.405 13.7007C11.4468 13.7531 11.4878 13.8069 11.5273 13.8618C11.5669 13.8069 11.6078 13.7531 11.6497 13.7007C12.0052 13.2552 12.4907 12.8288 13.0291 12.5152C13.5638 12.2038 14.188 11.9822 14.8145 12.0011C15.464 12.0207 16.0823 12.2997 16.5481 12.9208C17.0257 13.5578 17.1289 14.3677 17.0117 15.18C16.8941 15.9943 16.5499 16.8612 16.0626 17.6844C15.0925 19.323 13.4898 20.8963 11.7151 21.6076ZM27.7417 21.618C27.7512 21.6148 27.7605 21.6114 27.7698 21.6076C29.5444 20.8963 31.1472 19.323 32.1173 17.6844C32.6046 16.8612 32.9488 15.9943 33.0663 15.18C33.1836 14.3677 33.0804 13.5578 32.6028 12.9208C32.137 12.2997 31.5186 12.0207 30.8692 12.0011C30.2427 11.9822 29.6185 12.2038 29.0837 12.5152C28.5453 12.8288 28.0599 13.2552 27.7043 13.7007C27.6625 13.7531 27.6216 13.8069 27.582 13.8618C27.5424 13.8069 27.5015 13.7531 27.4597 13.7007C27.1042 13.2552 26.6187 12.8288 26.0803 12.5152C25.5456 12.2038 24.9214 11.9822 24.2948 12.0011C23.6454 12.0207 23.0271 12.2997 22.5613 12.9208C22.0837 13.5578 21.9805 14.3677 22.0977 15.18C22.2153 15.9943 22.5595 16.8612 23.0468 17.6844C24.0172 19.3236 25.6208 20.8974 27.3962 21.6084C27.4592 21.6336 27.5243 21.6451 27.5881 21.6443C27.6392 21.6437 27.691 21.6352 27.7417 21.618Z" fill="#61FF97" shape-rendering="crispEdges"/>
<path d="M16.5394 28.7526L15.4764 29.9484V29.9484L16.5394 28.7526ZM23.4606 28.7526L22.3977 27.5567H22.3976L23.4606 28.7526ZM24.7894 30.2474L25.8524 31.4433L24.7894 30.2474ZM15.2106 30.2474L14.1476 31.4432L14.1476 31.4432L15.2106 30.2474ZM11.687 21.618L11.1753 20.1021L11.1748 20.1022L11.687 21.618ZM11.7151 21.6076L11.1199 20.1224L11.1141 20.1248L11.7151 21.6076ZM11.5334 21.6443L11.5143 20.0444L11.5133 20.0444L11.5334 21.6443ZM11.3415 21.6084L10.7467 23.0937L10.7467 23.0937L11.3415 21.6084ZM6.99211 17.6844L8.36893 16.8693L6.99211 17.6844ZM6.04303 15.18L4.45944 15.4086L4.45944 15.4086L6.04303 15.18ZM6.50661 12.9208L5.22654 11.9609L5.22654 11.9609L6.50661 12.9208ZM8.24014 12.0011L8.28841 13.6004L8.24014 12.0011ZM10.0256 12.5152L10.8309 11.1327L10.8309 11.1327L10.0256 12.5152ZM11.405 13.7007L10.1544 14.6987L10.1544 14.6987L11.405 13.7007ZM11.5273 13.8618L10.2291 14.797L11.5273 16.5995L12.8256 14.797L11.5273 13.8618ZM11.6497 13.7007L12.9002 14.6987L12.9002 14.6987L11.6497 13.7007ZM13.0291 12.5152L12.2238 11.1327L13.0291 12.5152ZM14.8145 12.0011L14.8628 10.4019H14.8628L14.8145 12.0011ZM16.5481 12.9208L15.268 13.8807V13.8807L16.5481 12.9208ZM17.0117 15.18L15.4281 14.9514L15.4281 14.9514L17.0117 15.18ZM16.0626 17.6844L17.4394 18.4995V18.4995L16.0626 17.6844ZM27.7698 21.6076L27.1745 20.1224L27.1687 20.1248L27.7698 21.6076ZM27.7417 21.618L27.23 20.1021L27.2295 20.1022L27.7417 21.618ZM32.1173 17.6844L30.7404 16.8693L32.1173 17.6844ZM33.0663 15.18L31.4828 14.9514V14.9514L33.0663 15.18ZM32.6028 12.9208L33.8828 11.9609V11.9609L32.6028 12.9208ZM30.8692 12.0011L30.9175 10.4019H30.9175L30.8692 12.0011ZM29.0837 12.5152L29.889 13.8978L29.889 13.8978L29.0837 12.5152ZM27.7043 13.7007L28.9549 14.6987L28.9549 14.6987L27.7043 13.7007ZM27.582 13.8618L26.2837 14.797L27.582 16.5995L28.8803 14.797L27.582 13.8618ZM27.4597 13.7007L26.2091 14.6987L26.2091 14.6987L27.4597 13.7007ZM26.0803 12.5152L26.8856 11.1327L26.8856 11.1327L26.0803 12.5152ZM24.2948 12.0011L24.2466 10.4019L24.2948 12.0011ZM22.5613 12.9208L23.8414 13.8808L23.8414 13.8808L22.5613 12.9208ZM22.0977 15.18L23.6813 14.9514V14.9514L22.0977 15.18ZM23.0468 17.6844L24.4236 16.8693H24.4236L23.0468 17.6844ZM27.3962 21.6084L26.8014 23.0937L26.8014 23.0937L27.3962 21.6084ZM27.5881 21.6443L27.569 20.0444L27.568 20.0444L27.5881 21.6443ZM34.4 20C34.4 27.9529 27.9529 34.4 20 34.4V37.6C29.7202 37.6 37.6 29.7202 37.6 20H34.4ZM20 5.6C27.9529 5.6 34.4 12.0471 34.4 20H37.6C37.6 10.2798 29.7202 2.4 20 2.4V5.6ZM5.6 20C5.6 12.0471 12.0471 5.6 20 5.6V2.4C10.2798 2.4 2.4 10.2798 2.4 20H5.6ZM20 34.4C12.0471 34.4 5.6 27.9529 5.6 20H2.4C2.4 29.7202 10.2798 37.6 20 37.6V34.4ZM17.6024 27.5567C17.0593 27.074 16.6 26.2941 16.6 24.9999H13.4C13.4 27.1631 14.2173 28.8292 15.4764 29.9484L17.6024 27.5567ZM20 28.4C19.0545 28.4 18.1933 28.082 17.6024 27.5567L15.4764 29.9484C16.7244 31.0577 18.3716 31.6 20 31.6L20 28.4ZM22.3976 27.5567C21.8067 28.082 20.9455 28.4 20 28.4L20 31.6C21.6283 31.6 23.2756 31.0578 24.5236 29.9484L22.3976 27.5567ZM23.4 25C23.4 26.2941 22.9407 27.0741 22.3977 27.5567L24.5236 29.9484C25.7827 28.8292 26.6 27.1631 26.6 25H23.4ZM26 22.4C24.5641 22.4 23.4 23.564 23.4 25H26.6C26.6 25.3313 26.3314 25.6 26 25.6V22.4ZM28.6 25C28.6 23.564 27.4359 22.4 26 22.4V25.6C25.6686 25.6 25.4 25.3313 25.4 25H28.6ZM25.8524 31.4433C27.5598 29.9256 28.6 27.7053 28.6 25H25.4C25.4 26.8374 24.7168 28.1711 23.7264 29.0515L25.8524 31.4433ZM20 33.6C22.0536 33.6 24.1927 32.9185 25.8524 31.4433L23.7264 29.0515C22.7249 29.9417 21.3725 30.4 20 30.4L20 33.6ZM14.1476 31.4432C15.8073 32.9184 17.9464 33.6 20 33.6L20 30.4C18.6275 30.4 17.2751 29.9417 16.2736 29.0515L14.1476 31.4432ZM11.4 24.9999C11.4 27.7052 12.4402 29.9255 14.1476 31.4432L16.2736 29.0515C15.2832 28.1711 14.6 26.8373 14.6 24.9999H11.4ZM14 22.3999C12.5641 22.3999 11.4 23.5639 11.4 24.9999H14.6C14.6 25.3313 14.3314 25.5999 14 25.5999V22.3999ZM16.6 24.9999C16.6 23.5639 15.4359 22.3999 14 22.3999V25.5999C13.6686 25.5999 13.4 25.3313 13.4 24.9999H16.6ZM12.1987 23.134C12.2382 23.1207 12.2774 23.1061 12.3162 23.0904L11.1141 20.1248C11.1343 20.1166 11.1547 20.109 11.1753 20.1021L12.1987 23.134ZM11.5526 23.2442C11.7689 23.2416 11.9872 23.2055 12.1992 23.1339L11.1748 20.1022C11.2854 20.0649 11.4002 20.0458 11.5143 20.0444L11.5526 23.2442ZM10.7467 23.0937C11.0086 23.1986 11.2829 23.2476 11.5536 23.2442L11.5133 20.0444C11.6562 20.0426 11.8004 20.0686 11.9362 20.123L10.7467 23.0937ZM5.61528 18.4995C6.72051 20.3664 8.57053 22.2223 10.7467 23.0937L11.9363 20.123C10.5616 19.5726 9.20459 18.2809 8.36893 16.8693L5.61528 18.4995ZM4.45944 15.4086C4.6148 16.4849 5.05375 17.5509 5.61528 18.4995L8.36893 16.8693C7.9558 16.1714 7.70634 15.5037 7.62661 14.9514L4.45944 15.4086ZM5.22654 11.9609C4.40808 13.0524 4.30548 14.3421 4.45944 15.4086L7.62661 14.9514C7.54606 14.3934 7.64985 14.0632 7.78668 13.8808L5.22654 11.9609ZM8.19187 10.4019C7.07367 10.4356 5.99476 10.9365 5.22654 11.9609L7.78668 13.8808C7.8812 13.7547 7.96653 13.6938 8.03106 13.6609C8.09745 13.6271 8.17989 13.6037 8.28841 13.6004L8.19187 10.4019ZM10.8309 11.1327C10.1365 10.7282 9.21449 10.371 8.19187 10.4019L8.28841 13.6004C8.51885 13.5935 8.84526 13.6793 9.22033 13.8978L10.8309 11.1327ZM12.6556 12.7027C12.1772 12.1032 11.541 11.5463 10.8309 11.1327L9.22033 13.8978C9.58708 14.1114 9.92175 14.4071 10.1544 14.6987L12.6556 12.7027ZM12.8256 12.9267C12.7699 12.8494 12.713 12.7746 12.6556 12.7027L10.1544 14.6987C10.1806 14.7315 10.2056 14.7644 10.2291 14.797L12.8256 12.9267ZM10.3991 12.7027C10.3416 12.7747 10.2848 12.8494 10.2291 12.9267L12.8256 14.797C12.8491 14.7644 12.874 14.7315 12.9002 14.6987L10.3991 12.7027ZM12.2238 11.1327C11.5137 11.5463 10.8775 12.1032 10.3991 12.7027L12.9002 14.6987C13.1329 14.4071 13.4676 14.1114 13.8344 13.8978L12.2238 11.1327ZM14.8628 10.4019C13.8402 10.371 12.9181 10.7282 12.2238 11.1327L13.8344 13.8978C14.2094 13.6793 14.5358 13.5935 14.7663 13.6004L14.8628 10.4019ZM17.8281 11.9609C17.0599 10.9365 15.981 10.4356 14.8628 10.4019L14.7663 13.6004C14.8748 13.6037 14.9572 13.6271 15.0236 13.6609C15.0882 13.6938 15.1735 13.7547 15.268 13.8807L17.8281 11.9609ZM18.5952 15.4086C18.7492 14.3421 18.6466 13.0524 17.8281 11.9609L15.268 13.8807C15.4048 14.0632 15.5086 14.3934 15.4281 14.9514L18.5952 15.4086ZM17.4394 18.4995C18.0009 17.5509 18.4399 16.4849 18.5952 15.4086L15.4281 14.9514C15.3483 15.5037 15.0989 16.1714 14.6858 16.8693L17.4394 18.4995ZM12.3104 23.0927C14.4855 22.2209 16.3345 20.3658 17.4394 18.4995L14.6858 16.8693C13.8504 18.2803 12.494 19.5717 11.1199 20.1225L12.3104 23.0927ZM27.1687 20.1248C27.189 20.1166 27.2095 20.109 27.23 20.1021L28.2533 23.134C28.2929 23.1207 28.3321 23.1061 28.3709 23.0904L27.1687 20.1248ZM30.7404 16.8693C29.9051 18.2803 28.5487 19.5717 27.1746 20.1225L28.3651 23.0927C30.5402 22.2209 32.3892 20.3658 33.4941 18.4995L30.7404 16.8693ZM31.4828 14.9514C31.403 15.5037 31.1536 16.1714 30.7404 16.8693L33.4941 18.4995C34.0556 17.5509 34.4946 16.4849 34.6499 15.4086L31.4828 14.9514ZM31.3227 13.8807C31.4595 14.0632 31.5633 14.3934 31.4828 14.9514L34.6499 15.4086C34.8039 14.3421 34.7013 13.0524 33.8828 11.9609L31.3227 13.8807ZM30.821 13.6004C30.9295 13.6037 31.0119 13.6271 31.0783 13.6609C31.1428 13.6938 31.2282 13.7547 31.3227 13.8808L33.8828 11.9609C33.1146 10.9365 32.0357 10.4356 30.9175 10.4019L30.821 13.6004ZM29.889 13.8978C30.2641 13.6793 30.5905 13.5935 30.821 13.6004L30.9175 10.4019C29.8949 10.371 28.9728 10.7282 28.2785 11.1327L29.889 13.8978ZM28.9549 14.6987C29.1876 14.4071 29.5223 14.1114 29.889 13.8978L28.2785 11.1327C27.5684 11.5463 26.9321 12.1032 26.4537 12.7027L28.9549 14.6987ZM28.8803 14.797C28.9038 14.7644 28.9287 14.7315 28.9549 14.6987L26.4538 12.7027C26.3963 12.7747 26.3394 12.8494 26.2837 12.9267L28.8803 14.797ZM26.2091 14.6987C26.2353 14.7315 26.2603 14.7644 26.2837 14.797L28.8803 12.9267C28.8246 12.8494 28.7677 12.7747 28.7103 12.7027L26.2091 14.6987ZM25.275 13.8978C25.6418 14.1114 25.9764 14.4071 26.2091 14.6987L28.7103 12.7027C28.2319 12.1032 27.5957 11.5463 26.8856 11.1327L25.275 13.8978ZM24.3431 13.6004C24.5735 13.5935 24.9 13.6794 25.275 13.8978L26.8856 11.1327C26.1912 10.7282 25.2692 10.371 24.2466 10.4019L24.3431 13.6004ZM23.8414 13.8808C23.9359 13.7547 24.0212 13.6938 24.0857 13.6609C24.1521 13.6271 24.2346 13.6037 24.3431 13.6004L24.2466 10.4019C23.1284 10.4356 22.0494 10.9365 21.2812 11.9609L23.8414 13.8808ZM23.6813 14.9514C23.6007 14.3934 23.7045 14.0632 23.8414 13.8808L21.2812 11.9609C20.4628 13.0524 20.3602 14.3421 20.5141 15.4086L23.6813 14.9514ZM24.4236 16.8693C24.0105 16.1714 23.761 15.5037 23.6813 14.9514L20.5141 15.4086C20.6695 16.4849 21.1084 17.5509 21.67 18.4995L24.4236 16.8693ZM27.9909 20.123C26.6163 19.5726 25.2593 18.2809 24.4236 16.8693L21.67 18.4995C22.7752 20.3664 24.6252 22.2223 26.8014 23.0937L27.9909 20.123ZM27.568 20.0444C27.7109 20.0426 27.8551 20.0686 27.9909 20.123L26.8014 23.0937C27.0632 23.1986 27.3376 23.2476 27.6083 23.2442L27.568 20.0444ZM27.2295 20.1022C27.3401 20.0649 27.4548 20.0458 27.569 20.0444L27.6073 23.2442C27.8236 23.2416 28.0419 23.2055 28.2538 23.1339L27.2295 20.1022Z" fill="#585858" fill-opacity="0.74" mask="url(#path-1-outside-1_1690_65539)"/>
</g>
</g>
<defs>
<filter id="filter0_d_1690_65539" x="0.398438" y="0.399902" width="43.2031" height="43.2002" filterUnits="userSpaceOnUse" color-interpolation-filters="sRGB">
<feFlood flood-opacity="0" result="BackgroundImageFix"/>
<feColorMatrix in="SourceAlpha" type="matrix" values="0 0 0 0 0 0 0 0 0 0 0 0 0 0 0 0 0 0 127 0" result="hardAlpha"/>
<feOffset dx="2" dy="2"/>
<feGaussianBlur stdDeviation="2"/>
<feComposite in2="hardAlpha" operator="out"/>
<feColorMatrix type="matrix" values="0 0 0 0 0.655 0 0 0 0 0.655 0 0 0 0 0.655 0 0 0 0.31 0"/>
<feBlend mode="normal" in2="BackgroundImageFix" result="effect1_dropShadow_1690_65539"/>
<feBlend mode="normal" in="SourceGraphic" in2="effect1_dropShadow_1690_65539" result="shape"/>
</filter>
<filter id="filter1_d_1690_65539" x="2.39844" y="2.3999" width="39.2031" height="39.2002" filterUnits="userSpaceOnUse" color-interpolation-filters="sRGB">
<feFlood flood-opacity="0" result="BackgroundImageFix"/>
<feColorMatrix in="SourceAlpha" type="matrix" values="0 0 0 0 0 0 0 0 0 0 0 0 0 0 0 0 0 0 127 0" result="hardAlpha"/>
<feOffset dx="2" dy="2"/>
<feGaussianBlur stdDeviation="1"/>
<feComposite in2="hardAlpha" operator="out"/>
<feColorMatrix type="matrix" values="0 0 0 0 0 0 0 0 0 0 0 0 0 0 0 0 0 0 0.2 0"/>
<feBlend mode="overlay" in2="BackgroundImageFix" result="effect1_dropShadow_1690_65539"/>
<feBlend mode="normal" in="SourceGraphic" in2="effect1_dropShadow_1690_65539" result="shape"/>
</filter>
</defs>
</svg>
