<svg width="24" height="24" viewBox="0 0 24 24" fill="none" xmlns="http://www.w3.org/2000/svg">
<g clip-path="url(#clip0_1312_40343)">
<g clip-path="url(#clip1_1312_40343)">
<path d="M19.9574 13.7089C19.7285 10.7261 18.3394 8.85698 17.1144 7.20738C15.98 5.68042 15.0002 4.36167 15.0002 2.41636C15.0002 2.26011 14.9127 2.11714 14.7741 2.04566C14.635 1.97378 14.4678 1.9855 14.3412 2.0773C12.5014 3.39409 10.9658 5.61323 10.4294 7.73042C10.0572 9.20464 10.0079 10.8617 10.0009 11.9562C8.30164 11.5933 7.91687 9.05152 7.91257 9.02378C7.89343 8.89175 7.81296 8.7773 7.69577 8.71441C7.57741 8.65269 7.43834 8.648 7.31803 8.70738C7.22896 8.75034 5.13086 9.81636 5.00898 14.0726C5.00039 14.2144 5 14.3562 5 14.4984C5 18.6335 8.36493 21.998 12.5002 21.998C12.506 21.9984 12.5119 21.9992 12.517 21.998H12.5224C16.6475 21.9863 20.0008 18.6261 20.0008 14.4984C20.0008 14.2906 19.9582 13.7082 19.9582 13.7082L19.9574 13.7089ZM12.4998 21.1652C11.1212 21.1652 9.99973 19.9707 9.99973 18.5023C9.99973 18.4523 9.99973 18.4019 10.0029 18.3398C10.0197 17.7207 10.1372 17.298 10.2661 17.0168C10.5079 17.5359 10.94 18.0132 11.642 18.0132C11.8724 18.0132 12.0588 17.8269 12.0588 17.5964C12.0588 17.0031 12.0709 16.3187 12.2185 15.7011C12.3502 15.1535 12.6642 14.5707 13.0619 14.1039C13.2389 14.7101 13.5838 15.2007 13.9209 15.6796C14.403 16.3648 14.9014 17.073 14.9889 18.2812C14.9944 18.3527 14.9995 18.425 14.9995 18.5023C14.9995 19.9707 13.878 21.1652 12.4994 21.1652H12.4998Z" fill="#EC6330"/>
</g>
</g>
<defs>
<clipPath id="clip0_1312_40343">
<rect width="24" height="24" fill="white"/>
</clipPath>
<clipPath id="clip1_1312_40343">
<rect width="15.0004" height="20" fill="white" transform="translate(5 2)"/>
</clipPath>
</defs>
</svg>
