<svg width="24" height="24" viewBox="0 0 24 24" fill="none" xmlns="http://www.w3.org/2000/svg">
<g clip-path="url(#clip0_1433_42015)">
<path d="M13.4793 11.9038C14.6268 11.9038 15.7274 11.448 16.5389 10.6365C17.3503 9.82506 17.8062 8.72449 17.8062 7.57692C17.8062 6.42935 17.3503 5.32878 16.5389 4.51733C15.7274 3.70587 14.6268 3.25 13.4793 3.25C12.3317 3.25 11.2311 3.70587 10.4197 4.51733C9.60821 5.32878 9.15234 6.42935 9.15234 7.57692C9.15234 8.72449 9.60821 9.82506 10.4197 10.6365C11.2311 11.448 12.3317 11.9038 13.4793 11.9038Z" fill="#F5F5F5"/>
<path d="M18.644 13.5272C8.38323 16.4369 5.83482 9.3976 5.94878 6.25682C5.96308 5.86274 5.86773 5.45035 5.55481 5.21037C4.31895 4.26255 3.07398 4.79851 2.38408 5.37658C2.19595 5.53421 2.09 5.76685 2.05819 6.01022C1.42663 10.8419 3.48546 13.9228 5.14074 15.3324C5.61076 15.7326 5.84715 16.3787 5.67131 16.9705C4.99844 19.235 5.142 20.8798 5.72026 21.6889C5.88242 21.9158 6.166 22.0006 6.44488 22.0006H20.2974C20.8779 22.0006 21.3893 21.6016 21.4708 21.0269C21.8907 18.0646 21.0949 15.1655 19.7191 13.7537C19.4454 13.4728 19.0212 13.4202 18.644 13.5272Z" fill="#F5F5F5"/>
</g>
<defs>
<clipPath id="clip0_1433_42015">
<rect width="20" height="20" fill="white" transform="translate(2 2)"/>
</clipPath>
</defs>
</svg>
