<svg width="33" height="32" viewBox="0 0 33 32" fill="none" xmlns="http://www.w3.org/2000/svg">
<path fill-rule="evenodd" clip-rule="evenodd" d="M22.49 17.3359H17.8233V22.0026C17.8233 22.3562 17.6828 22.6954 17.4328 22.9454C17.1827 23.1955 16.8436 23.3359 16.49 23.3359C16.1364 23.3359 15.7972 23.1955 15.5472 22.9454C15.2971 22.6954 15.1567 22.3562 15.1567 22.0026V17.3359H10.49C10.1364 17.3359 9.79722 17.1955 9.54718 16.9454C9.29713 16.6954 9.15665 16.3562 9.15665 16.0026C9.15665 15.649 9.29713 15.3098 9.54718 15.0598C9.79722 14.8097 10.1364 14.6693 10.49 14.6693H15.1567V10.0026C15.1567 9.64898 15.2971 9.30984 15.5472 9.0598C15.7972 8.80975 16.1364 8.66927 16.49 8.66927C16.8436 8.66927 17.1827 8.80975 17.4328 9.0598C17.6828 9.30984 17.8233 9.64898 17.8233 10.0026V14.6693H22.49C22.8436 14.6693 23.1827 14.8097 23.4328 15.0598C23.6828 15.3098 23.8233 15.649 23.8233 16.0026C23.8233 16.3562 23.6828 16.6954 23.4328 16.9454C23.1827 17.1955 22.8436 17.3359 22.49 17.3359ZM16.5007 1.33594C8.40065 1.33594 1.83398 7.9026 1.83398 16.0026C1.83398 24.1026 8.40065 30.6693 16.5007 30.6693C24.6007 30.6693 31.1673 24.1026 31.1673 16.0026C31.1673 7.9026 24.6007 1.33594 16.5007 1.33594Z" fill="#707070"/>
</svg>
