<svg width="18" height="18" viewBox="0 0 18 18" fill="none" xmlns="http://www.w3.org/2000/svg">
<g clip-path="url(#clip0_1231_103783)">
<path fill-rule="evenodd" clip-rule="evenodd" d="M14.6914 14.9632C14.6307 14.9879 14.5657 15.0002 14.5001 14.9996C14.3677 14.9998 14.2409 14.9475 14.147 14.8541L12.8743 13.5814C11.8307 14.4638 10.5172 14.9636 9.151 14.9979C7.7848 15.0323 6.4478 14.5992 5.3612 13.7704C4.27459 12.9415 3.5035 11.7666 3.1755 10.4399C2.84749 9.11319 2.98222 7.71428 3.55741 6.47458C4.13259 5.23488 5.11375 4.22868 6.33857 3.62245C7.56339 3.01622 8.95846 2.8463 10.293 3.14078C11.6275 3.43526 12.8215 4.17651 13.6775 5.24189C14.5335 6.30727 15.0001 7.63293 15.0001 8.99957V14.4996C15.0004 14.5987 14.9712 14.6958 14.9162 14.7783C14.8613 14.8609 14.783 14.9252 14.6914 14.9632ZM6 8C5.44772 8 5 8.44772 5 9C5 9.55228 5.44772 10 6 10C6.55228 10 7 9.55228 7 9C7 8.44772 6.55228 8 6 8ZM8 9C8 8.44772 8.44772 8 9 8C9.55228 8 10 8.44772 10 9C10 9.55228 9.55228 10 9 10C8.44772 10 8 9.55228 8 9ZM12 8C11.4477 8 11 8.44772 11 9C11 9.55228 11.4477 10 12 10C12.5523 10 13 9.55228 13 9C13 8.44772 12.5523 8 12 8Z" fill="#C2C2C2"/>
</g>
<defs>
<clipPath id="clip0_1231_103783">
<rect width="18" height="18" fill="#C2C2C2"/>
</clipPath>
</defs>
</svg>
