<svg width="12" height="12" viewBox="0 0 12 12" fill="none" xmlns="http://www.w3.org/2000/svg">
<path d="M6.72656 11.25C6.4349 11.25 6.24045 11.05 6.24045 10.75C6.24045 10.45 6.4349 10.25 6.72656 10.25C9.01128 10.25 10.8585 8.35 10.8585 6C10.8585 3.65 9.01128 1.75 6.72656 1.75C4.78212 1.75 3.12934 3.15 2.69184 5H3.71267C3.90712 5 4.10156 5.1 4.15017 5.3C4.19878 5.5 4.19878 5.7 4.05295 5.85L2.54601 7.4C2.35156 7.6 2.0599 7.6 1.86545 7.4L0.358507 5.85C0.164062 5.7 0.115451 5.5 0.212674 5.3C0.261285 5.1 0.455729 5 0.650174 5H1.71962C2.15712 2.6 4.2474 0.75 6.72656 0.75C9.54601 0.75 11.8307 3.1 11.8307 6C11.8307 8.9 9.54601 11.25 6.72656 11.25Z" fill="#FFBA08"/>
</svg>
