<svg width="18" height="18" viewBox="0 0 18 18" fill="none" xmlns="http://www.w3.org/2000/svg">
<path fill-rule="evenodd" clip-rule="evenodd" d="M16.3106 9.47255C16.5221 9.14363 16.5649 8.73158 16.3961 8.37888C15.2597 6.00516 12.2216 3.75 8.99655 3.75C5.78254 3.75 2.9427 6.12326 1.64816 8.38528C1.44878 8.73367 1.45209 9.15946 1.64928 9.50909C3.04861 11.9901 5.75717 14.1443 8.99655 14.1443C12.2339 14.1443 14.8161 11.7971 16.3106 9.47255ZM8.99502 12.0993C10.736 12.0993 12.1473 10.6879 12.1473 8.94691C12.1473 7.20591 10.736 5.79456 8.99502 5.79456C7.25404 5.79456 5.8427 7.20591 5.8427 8.94691C5.8427 10.6879 7.25404 12.0993 8.99502 12.0993Z" fill="#C2C2C2"/>
<ellipse cx="8.99776" cy="8.947" rx="2.25166" ry="2.25168" fill="#C2C2C2"/>
</svg>
