<svg width="14" height="14" viewBox="0 0 14 14" fill="none" xmlns="http://www.w3.org/2000/svg">
<g id="Voting">
<g id="Group 427320148">
<path id="Vector" d="M7.72656 12.25C7.4349 12.25 7.24045 12.05 7.24045 11.75C7.24045 11.45 7.4349 11.25 7.72656 11.25C10.0113 11.25 11.8585 9.35 11.8585 7C11.8585 4.65 10.0113 2.75 7.72656 2.75C5.78212 2.75 4.12934 4.15 3.69184 6H4.71267C4.90712 6 5.10156 6.1 5.15017 6.3C5.19878 6.5 5.19878 6.7 5.05295 6.85L3.54601 8.4C3.35156 8.6 3.0599 8.6 2.86545 8.4L1.35851 6.85C1.16406 6.7 1.11545 6.5 1.21267 6.3C1.26128 6.1 1.45573 6 1.65017 6H2.71962C3.15712 3.6 5.2474 1.75 7.72656 1.75C10.546 1.75 12.8307 4.1 12.8307 7C12.8307 9.9 10.546 12.25 7.72656 12.25Z" fill="#FFBA08"/>
<path id="Subtract" d="M6.125 5.97918C6.125 5.57646 6.45146 5.25 6.85418 5.25H8.89582C9.29854 5.25 9.625 5.57646 9.625 5.97918V8.02083C9.625 8.42354 9.29854 8.75 8.89583 8.75H6.85417C6.45146 8.75 6.125 8.42354 6.125 8.02083V5.97918Z" fill="#FFBA08"/>
</g>
</g>
</svg>
